<?xml version="1.0" encoding="utf-8"?>
<!-- Generator: Adobe Illustrator 25.4.1, SVG Export Plug-In . SVG Version: 6.00 Build 0)  -->
<svg version="1.1" id="Capa_1" xmlns="http://www.w3.org/2000/svg" xmlns:xlink="http://www.w3.org/1999/xlink" x="0px" y="0px"
	 viewBox="0 0 1366 768" style="enable-background:new 0 0 1366 768;" xml:space="preserve">
<path d="M642.8,568.68c-3.72,0.95-6.63,1.97-8.66,2.76c-1.83,0.71-3.02,1.26-3.08,2.09c-0.06,0.77,0.88,1.56,3.06,2.63
	c5.21,2.56,7.45,1.74,12.11,3.63c1.07,0.43,3.06,1.68,7.03,4.16c5.73,3.58,6.35,4.42,6.19,4.95c-0.14,0.47-2.01,0.77-5.76,1.37
	c0,0-2.78,0.45-5.11,1.33c-0.06,0.02-0.37,0.14-0.78,0.34c-1.13,0.56-1.99,0.98-2.14,1.57c-0.28,1.08,1.86,2.48,2.3,2.77
	c2,1.31,3.63,1.31,3.62,1.66c-0.01,0.8-8.49,0.88-8.59,2.05c-0.03,0.37,0.79,0.77,1.68,1.08c1.92,0.65,4.08,1.56,4.01,2.47
	c-0.16,2.18-13.15,2.87-17.32,3.09c-27.96,1.48-73.18-11.25-115.79-25.45c-25.78-8.59-50.53-19.5-74.48-32.28
	c-0.29-0.16-0.55-0.39-1.62-1.17c4.47-8.86,8.94-17.86,13.56-26.77c0.97-1.88,2.71-1.95,4.75-1.17c9.32,3.53,18.69,6.92,28.05,10.33
	c0.94,0.34,1.93,0.56,3.09,0.89c3.45-8.46,6.81-16.72,10.34-25.38c-1.9-0.65-3.67-1.33-5.48-1.86c-9.5-2.79-17.8-7.87-25.82-13.51
	c-2.21-1.55-2.95-3.33-1.98-5.89c2.58-6.85,4.85-13.84,7.74-20.55c2.02-4.71,3.17-4.6,7.68-2.48c6.22,2.93,12.64,5.43,18.93,8.2
	c4.89,2.15,9.13,0.69,12.39-2.87c4.24-4.64,8.31-9.53,11.8-14.75c9.98-14.97,17.47-31.2,23.56-48.23
	c-13.44-9.93-23.16-22.73-29.74-37.85c-9.04-20.77-11.38-41.81-3.12-63.64c1.59-4.21,0.55-9.85-0.54-14.54
	c-5.52-23.88-10.65-26.44-13.4-45.09c0,0-1.26-8.55-6.31-13.57c-2.04-2.03-3.71-2.37-4.65-2.42c-2.05-0.11-3.66,0.96-4.24,1.4
	c-10.05,7.62-13.76,18.31-14.97,30.21c-0.76,7.45-2.24,14.5-9.59,18.3c-2.1,1.09-4.74,1.14-7.13,1.64
	c-1.52,0.32-3.15,0.38-4.57,0.95c-4.79,1.91-9.22,1.73-13.8-0.96c-9.16-5.37-13.47-13.39-14.06-23.76
	c-0.57-9.86-1.24-19.71-1.86-29.57c-0.53-8.51-1.84-16.84-5.14-24.8c-1.91-4.61-1.21-6.46,2.65-9.5c0.81-0.64,1.7-1.21,2.42-1.94
	c2.57-2.64,1.94-5.9-1.34-7.42c-26.36-12.21-52.71-24.44-79.06-36.66c-0.62-0.29-1.44-0.46-1.8-0.95c-0.56-0.75-0.81-1.73-1.2-2.62
	c0.88-0.22,1.85-0.8,2.63-0.61c7.92,1.92,15.82,3.89,23.69,5.97c19.86,5.24,39.69,10.55,59.54,15.82c0.64,0.17,1.3,0.24,2.48,0.46
	c-4.99-7.26-7.07-14.98-6.22-23.16c0.43-4.1,1.89-8.23,3.6-12.02c1.46-3.23,4.58-4.61,8.33-4.37c1.04,0.07,2.48-0.39,3.16-1.13
	c4.14-4.53,8.45-5.15,12.69-0.63c4.51,4.8,8.26,10.32,12.66,15.93c3.27-0.44,7.54-1.34,11.84-1.53
	c19.34-0.86,37.01,5.03,53.46,14.51c35.34,20.36,61.37,48.96,75.68,87.56c1.99,5.37,3.5,10.92,5.22,16.39
	c3.83,12.14,11.31,20.33,24.04,23.69c16.6,4.38,33.47,5.55,50.51,5.63c27.22,0.14,53.97-3.71,80.65-8.75
	c24.4-4.61,48.64-4.15,71.39,7.21c31.87,15.92,48.09,42.19,49.4,77.69c0.47,12.88-1.95,25.31-6,37.54
	c-1.91,5.76-1.9,11.78-1.39,17.97c0.56,6.89,4.57,11.31,8.57,15.92c2.7,3.11,3.6,6.33,3.34,10.4c-0.69,10.55,0.62,20.97,2.44,30.83
	c8.02-2.49,15.7-5.06,23.48-7.23c5.05-1.41,6.84-0.57,8.88,4.36c2.18,5.26,3.89,10.73,5.53,16.19c0.75,2.49-0.56,4.52-2.43,6.38
	c-5.84,5.79-13.27,8.48-20.74,11.18c-1.16,0.42-2.35,0.77-3.85,1.26c5.31,6.94,5.85,14.93,6.12,23c0.2,6.16,0.56,6.12,6.77,4.86
	c13.99-2.85,27.44-7.25,40.49-13.25c6.17,7.85,8.27,17.04,10.7,26.08c1.54,5.72,0.77,7.36-4.69,10.1
	c-32.44,16.32-66.53,28.14-101.68,37c-28.3,7.13-57.01,11.94-86.01,15.08c-1.5,0.16-3.03,0.02-5.14,0.02
	c1.95-1.43,3.27-2.41,4.59-3.38c-0.85-0.64-1.69-1.28-2.63-1.98c3.28-0.47,6.64-0.91,9.99-1.46c0.87-0.14,1.82-0.45,2.49-0.98
	c0.53-0.42,0.94-1.31,0.92-1.99c-0.01-0.39-0.92-1-1.49-1.1c-9.87-1.73-19.28-6.17-29.9-4.66c0.79-1.31,2.02-2.57,1.76-3.09
	c-0.45-0.92-1.82-1.38-3.03-2.17c2.09-3.33,6.91-5.27,6.39-10.23c-2.83-1.24-5.56-2.44-8.37-3.67c4.34-5.84,10.46-5.9,16.44-6.58
	c25.67-2.93,51.14-7.04,76.17-13.53c10.55-2.73,21.03-5.69,31.54-8.56c0.98-0.27,1.92-0.67,2.86-1
	c-1.69-7.32-6.57-15.62-14.31-24.36c-16.29,7.1-33.41,11.68-50.8,15.38c-18.79,4-37.87,5.78-56.98,7.33c-3,0.24-5.26-1.28-7.87-1.99
	c-3.69-1-7.69-0.87-11.35-1.2c1.97-1.18,3.09-3.17,2.8-5.01c-0.3-1.84-1.92-2.9-2.19-3.08c-2.02-1.33-4.21-0.73-4.28-1.2
	c-0.06-0.43,1.64-1.26,3.47-1.49c1.72-0.22,2.23,0.26,2.99-0.22c1.1-0.7,1.49-2.6,1-4c-0.17-0.49-0.79-1.89-4-3
	c-5.75-1.99-9.93,0.35-10.67-1.04c-0.71-1.32,2.52-4.51,4.72-6.19c2.06-1.57,4-2.75,5.08-2.83c13.13-0.93,73.74-10.25,74.61-10.38
	c0,0,0.01,0,0.01,0c19.46-2.99,33.45-6.6,43.26-10.55c1.62-0.88,4.58-2.79,6.73-6.35c0.69-1.14,2.01-3.4,2.27-6.65
	c0.24-3.01-0.57-5.29-0.97-6.39c-1.37-3.73-3.77-6.13-5.02-7.3c-9.42-8.85-20.41-15.23-32.14-20.36
	c-12.8-5.59-25.28-11.7-35.51-21.41c-4.8-4.56-9.39-9.47-13.36-14.76c-2.49-3.31-5.22-4.14-8.75-3.49c-14.99,2.78-29.9,6-44.94,8.42
	c-15.4,2.48-30.87,4.59-46.39,6.15c-16.84,1.69-33.77,1-50.54-1.14c-8.69-1.11-15.09,2.05-20.15,8.29
	c-9.25,11.41-18.5,22.87-26.99,34.84c-5.79,8.16-10.31,17.22-15.65,26.3c32.71,16.25,67.2,20.89,101.59,24.21
	c0.54,1.65,1.5,3.96,3.31,6.26c2.48,3.15,5.11,4.44,4.72,5.52c-0.27,0.74-1.65,0.5-5.38,1.28c-3.2,0.67-4.82,1.03-5.48,2.15
	c-0.71,1.21-0.23,2.73,0.68,5.44c1.26,3.76,2.39,4.55,2.19,5.33c-0.45,1.79-7.91,3.88-30.83-0.73
	c-29.24-5.88-71.16-13.43-87.29-16.43c-0.85-0.16-2.38,0.29-2.71,0.92c-4.13,7.91-8.09,15.91-12.38,24.46
	C563.94,557.33,603.2,562.7,642.8,568.68z"/>
</svg>
